# xmcd
#
# Track frame offsets:
#	150
#	19055
#	46270
#	63157
#	81065
#	102462
#	121350
#	138185
#	157745
#	176672
#	203697
#	219995
#	234487
#	253360
#	273367
#	293560
#	309270
#
# Disc length: 4324 seconds
#
# Revision: 2
# Processed by: cddbd v1.4PL0 Copyright (c) Steve Scherf et al.
# Submitted via: EasyCDDAExtractor 6.0.0.1
#
DISCID=e210e211
DTITLE=Lea Allen - Seductive Sax
DYEAR=1900
DGENRE=Blues
TTITLE0=I Swear
TTITLE1=I'll Make Love To You
TTITLE2=Just The Way You Are
TTITLE3=Can You Feel The Love Tonight
TTITLE4=One More Night
TTITLE5=Endless Love
TTITLE6=Misty
TTITLE7=I Will Always Love You
TTITLE8=Take My Breath Away
TTITLE9=The Power Of Love
TTITLE10=Unchained Melody
TTITLE11=When A Man Loves A Woman
TTITLE12=Breathe Again
TTITLE13=Streets Of Philadelphia
TTITLE14=I'll Always Be There
TTITLE15=Unforgettable
TTITLE16=When I Fall In Love
EXTD=ID 0251890A Time 71:54
EXTT0=
EXTT1=
EXTT2=
EXTT3=
EXTT4=
EXTT5=
EXTT6=
EXTT7=
EXTT8=
EXTT9=
EXTT10=
EXTT11=
EXTT12=
EXTT13=
EXTT14=
EXTT15=
EXTT16=
PLAYORDER=
